# xmcd CD database file
#
# Track frame offsets:
#	150
#	13348
#	27075
#	40350
#	55972
#	69900
#	85862
#	103032
#	118207
#	138006
#	160117
#	176802
#	191060
#	208584
#	226551
#	243397
#	258748
#	278704
#	296246
#	314534
#	332462
#
# Disc length: 4697 seconds
#
# Revision: 0
# Processed by: cddbd v1.5PL3 Copyright (c) Steve Scherf et al.
# Submitted via: CDex 1.51
#
DISCID=31125715
DTITLE=太田　裕美 - Hiromi Ohta Singles 1974-1978
DYEAR=2003
DGENRE=Pop
TTITLE0=雨だれ
TTITLE1=白い季節
TTITLE2=たんぽぽ
TTITLE3=リラの花咲く頃
TTITLE4=夕焼け
TTITLE5=水曜日の約束
TTITLE6=木綿のハンカチーフ
TTITLE7=揺れる愛情
TTITLE8=赤いハイヒール
TTITLE9=茶いろの鞄
TTITLE10=最後の一葉
TTITLE11=銀のオルゴール
TTITLE12=しあわせ未満
TTITLE13=初恋ノスタルジー
TTITLE14=恋愛遊技
TTITLE15=心象風景
TTITLE16=九月の雨
TTITLE17=マニキュアの小壜
TTITLE18=恋人たちの１００の偽り
TTITLE19=四季絵巻
TTITLE20=失恋魔術師
EXTD=YEAR: 2003
EXTT0=
EXTT1=
EXTT2=
EXTT3=
EXTT4=
EXTT5=
EXTT6=
EXTT7=
EXTT8=
EXTT9=
EXTT10=
EXTT11=
EXTT12=
EXTT13=
EXTT14=
EXTT15=
EXTT16=
EXTT17=
EXTT18=
EXTT19=
EXTT20=
PLAYORDER=
